<svg width="29" height="23" viewBox="0 0 29 23" fill="none" xmlns="http://www.w3.org/2000/svg">
<path d="M28.1231 9.54677V10.328C28.1231 10.9752 27.5985 11.4999 26.9514 11.4999H26.5608L25.2859 20.4251C25.121 21.5797 24.1323 22.4374 22.9661 22.4374H5.15877C3.99256 22.4374 3.00382 21.5797 2.83885 20.4251L1.56401 11.4999H1.17344C0.526301 11.4999 0.00170898 10.9752 0.00170898 10.328V9.54677C0.00170898 8.89955 0.526301 8.37489 1.17344 8.37489H4.46115L9.67436 1.2059C10.1819 0.508049 11.1589 0.353703 11.8567 0.861271C12.5546 1.36884 12.7088 2.34604 12.2013 3.04394L8.32472 8.37489H19.8001L15.9235 3.04389C15.416 2.34604 15.5703 1.36879 16.2681 0.861222C16.9659 0.353654 17.943 0.507951 18.4505 1.20585L23.6637 8.37489H26.9514C27.5985 8.37489 28.1231 8.89955 28.1231 9.54677ZM15.2341 18.1405V12.6718C15.2341 12.0246 14.7096 11.4999 14.0624 11.4999C13.4153 11.4999 12.8907 12.0246 12.8907 12.6718V18.1405C12.8907 18.7877 13.4153 19.3124 14.0624 19.3124C14.7096 19.3124 15.2341 18.7877 15.2341 18.1405ZM20.7022 18.1405V12.6718C20.7022 12.0246 20.1776 11.4999 19.5305 11.4999C18.8833 11.4999 18.3588 12.0246 18.3588 12.6718V18.1405C18.3588 18.7877 18.8833 19.3124 19.5305 19.3124C20.1776 19.3124 20.7022 18.7877 20.7022 18.1405ZM9.76609 18.1405V12.6718C9.76609 12.0246 9.2415 11.4999 8.59437 11.4999C7.94723 11.4999 7.42264 12.0246 7.42264 12.6718V18.1405C7.42264 18.7877 7.94723 19.3124 8.59437 19.3124C9.2415 19.3124 9.76609 18.7877 9.76609 18.1405Z" fill="#EEEEEE"/>
</svg>
