<svg width="50" height="51" viewBox="0 0 50 51" fill="none" xmlns="http://www.w3.org/2000/svg">
<g opacity="0.25" filter="url(#filter0_f_15_493)">
<rect x="7.53271" y="25" width="34.0611" height="21.2882" rx="10.6441" fill="url(#paint0_linear_15_493)"/>
</g>
<rect x="6.5" y="6.49994" width="36.8996" height="36.8996" rx="18.4498" fill="url(#paint1_linear_15_493)"/>
<g clip-path="url(#clip0_15_493)" filter="url(#filter1_i_15_493)">
<path d="M35.8999 17.73C35.1721 18.0435 34.4069 18.2618 33.6234 18.3796C33.9897 18.3167 34.5288 17.6567 34.7433 17.3896C35.0693 16.9866 35.3177 16.5266 35.476 16.0329C35.476 15.9962 35.5127 15.9438 35.476 15.9176C35.4576 15.9076 35.4369 15.9023 35.4158 15.9023C35.3948 15.9023 35.3741 15.9076 35.3556 15.9176C34.5048 16.3788 33.5992 16.7308 32.6604 16.9653C32.6277 16.9753 32.5929 16.9762 32.5597 16.9679C32.5265 16.9596 32.4962 16.9424 32.472 16.9181C32.3989 16.831 32.3202 16.7488 32.2365 16.6719C31.8536 16.3285 31.4191 16.0475 30.9491 15.8391C30.3145 15.5785 29.6291 15.4657 28.9446 15.5091C28.2805 15.551 27.632 15.7293 27.0396 16.0329C26.4563 16.3529 25.9436 16.7876 25.5324 17.311C25.0998 17.8496 24.7876 18.4748 24.6165 19.1443C24.4755 19.7812 24.4595 20.4395 24.5694 21.0824C24.5694 21.1924 24.5694 21.2082 24.4752 21.1924C20.7438 20.6424 17.6822 19.3172 15.1806 16.4729C15.0707 16.3472 15.0131 16.3472 14.9241 16.4729C13.8356 18.1281 14.3641 20.7472 15.7248 22.041C15.908 22.2139 16.0964 22.3815 16.2953 22.5386C15.6714 22.4943 15.0628 22.3251 14.5054 22.041C14.4008 21.9729 14.3432 22.0096 14.338 22.1353C14.3231 22.3096 14.3231 22.4848 14.338 22.6591C14.4472 23.4944 14.7761 24.2856 15.291 24.952C15.8059 25.6183 16.4884 26.1358 17.2687 26.4515C17.4589 26.5331 17.6571 26.5945 17.8601 26.6349C17.2826 26.7487 16.6902 26.7664 16.1069 26.6872C15.9813 26.6611 15.9342 26.7292 15.9813 26.8496C16.7506 28.9449 18.4201 29.5839 19.6447 29.9401C19.8122 29.9663 19.9797 29.9663 20.1681 30.0082C20.1681 30.0082 20.1681 30.0082 20.1367 30.0397C19.7756 30.6997 18.3154 31.1449 17.6455 31.3754C16.4228 31.815 15.1192 31.983 13.8251 31.8678C13.621 31.8363 13.5739 31.8416 13.5215 31.8678C13.4692 31.894 13.5215 31.9516 13.5791 32.004C13.8408 32.1768 14.1025 32.3287 14.3746 32.4754C15.1848 32.9177 16.0413 33.269 16.9285 33.523C21.5235 34.7906 26.6942 33.8583 30.1431 30.4273C32.854 27.7349 33.8065 24.021 33.8065 20.302C33.8065 20.1605 33.9792 20.0767 34.0787 20.0034C34.7645 19.4685 35.3692 18.8368 35.8738 18.1281C35.9611 18.0225 36.0059 17.888 35.9994 17.751C35.9994 17.6724 35.9994 17.6881 35.8999 17.73Z" fill="white"/>
</g>
<defs>
<filter id="filter0_f_15_493" x="2.82582" y="20.2931" width="43.4748" height="30.702" filterUnits="userSpaceOnUse" color-interpolation-filters="sRGB">
<feFlood flood-opacity="0" result="BackgroundImageFix"/>
<feBlend mode="normal" in="SourceGraphic" in2="BackgroundImageFix" result="shape"/>
<feGaussianBlur stdDeviation="2.35345" result="effect1_foregroundBlur_15_493"/>
</filter>
<filter id="filter1_i_15_493" x="13.5" y="13.5" width="22.5" height="22.931" filterUnits="userSpaceOnUse" color-interpolation-filters="sRGB">
<feFlood flood-opacity="0" result="BackgroundImageFix"/>
<feBlend mode="normal" in="SourceGraphic" in2="BackgroundImageFix" result="shape"/>
<feColorMatrix in="SourceAlpha" type="matrix" values="0 0 0 0 0 0 0 0 0 0 0 0 0 0 0 0 0 0 127 0" result="hardAlpha"/>
<feOffset dy="0.431035"/>
<feGaussianBlur stdDeviation="1.07759"/>
<feComposite in2="hardAlpha" operator="arithmetic" k2="-1" k3="1"/>
<feColorMatrix type="matrix" values="0 0 0 0 0 0 0 0 0 0 0 0 0 0 0 0 0 0 0.1 0"/>
<feBlend mode="normal" in2="shape" result="effect1_innerShadow_15_493"/>
</filter>
<linearGradient id="paint0_linear_15_493" x1="8.22502" y1="25" x2="23.2362" y2="55.0697" gradientUnits="userSpaceOnUse">
<stop stop-color="#00A2F4"/>
<stop offset="1" stop-color="#05ABFF"/>
</linearGradient>
<linearGradient id="paint1_linear_15_493" x1="7.25" y1="6.49994" x2="39" y2="46.2499" gradientUnits="userSpaceOnUse">
<stop stop-color="#0CA8F7"/>
<stop offset="1" stop-color="#0096E1"/>
</linearGradient>
<clipPath id="clip0_15_493">
<rect width="22.5" height="22.5" fill="white" transform="translate(13.5 13.5)"/>
</clipPath>
</defs>
</svg>
